<mxfile host="app.diagrams.net" agent="Mozilla/5.0 (Windows NT 10.0; Win64; x64) AppleWebKit/537.36 (KHTML, like Gecko) Chrome/128.0.0.0 Safari/537.36" version="24.8.3">
  <diagram name="Trang-1" id="XiytuJtJgVIQWhMYfiKH">
    <mxGraphModel dx="1050" dy="603" grid="0" gridSize="10" guides="1" tooltips="1" connect="1" arrows="1" fold="1" page="1" pageScale="1" pageWidth="1169" pageHeight="827" math="0" shadow="0">
      <root>
        <mxCell id="0" />
        <mxCell id="1" parent="0" />
        <mxCell id="3gPIwnl7m9PvrxcbxDyX-1" value="Khổi xử lí hình ảnh" style="rounded=0;whiteSpace=wrap;html=1;" vertex="1" parent="1">
          <mxGeometry x="160" y="240" width="120" height="60" as="geometry" />
        </mxCell>
        <mxCell id="3gPIwnl7m9PvrxcbxDyX-6" style="edgeStyle=orthogonalEdgeStyle;rounded=0;orthogonalLoop=1;jettySize=auto;html=1;exitX=1;exitY=0.5;exitDx=0;exitDy=0;entryX=0;entryY=0.25;entryDx=0;entryDy=0;" edge="1" parent="1" source="3gPIwnl7m9PvrxcbxDyX-2" target="3gPIwnl7m9PvrxcbxDyX-4">
          <mxGeometry relative="1" as="geometry" />
        </mxCell>
        <mxCell id="3gPIwnl7m9PvrxcbxDyX-2" value="Khối xử lí các thông số sinh học" style="rounded=0;whiteSpace=wrap;html=1;" vertex="1" parent="1">
          <mxGeometry x="160" y="140" width="120" height="60" as="geometry" />
        </mxCell>
        <mxCell id="3gPIwnl7m9PvrxcbxDyX-3" value="Khối hiển thị" style="rounded=0;whiteSpace=wrap;html=1;" vertex="1" parent="1">
          <mxGeometry x="622" y="120" width="120" height="60" as="geometry" />
        </mxCell>
        <mxCell id="3gPIwnl7m9PvrxcbxDyX-8" style="edgeStyle=orthogonalEdgeStyle;rounded=0;orthogonalLoop=1;jettySize=auto;html=1;exitX=1;exitY=0.5;exitDx=0;exitDy=0;entryX=0;entryY=0.5;entryDx=0;entryDy=0;" edge="1" parent="1" source="3gPIwnl7m9PvrxcbxDyX-4" target="3gPIwnl7m9PvrxcbxDyX-3">
          <mxGeometry relative="1" as="geometry" />
        </mxCell>
        <mxCell id="3gPIwnl7m9PvrxcbxDyX-10" style="edgeStyle=orthogonalEdgeStyle;rounded=0;orthogonalLoop=1;jettySize=auto;html=1;exitX=1;exitY=0.5;exitDx=0;exitDy=0;entryX=0;entryY=0.5;entryDx=0;entryDy=0;" edge="1" parent="1" source="3gPIwnl7m9PvrxcbxDyX-4" target="3gPIwnl7m9PvrxcbxDyX-9">
          <mxGeometry relative="1" as="geometry" />
        </mxCell>
        <mxCell id="3gPIwnl7m9PvrxcbxDyX-4" value="" style="triangle;whiteSpace=wrap;html=1;" vertex="1" parent="1">
          <mxGeometry x="380" y="180" width="190" height="80" as="geometry" />
        </mxCell>
        <mxCell id="3gPIwnl7m9PvrxcbxDyX-5" value="Khối kiểm tra" style="text;html=1;align=center;verticalAlign=middle;resizable=0;points=[];autosize=1;strokeColor=none;fillColor=none;" vertex="1" parent="1">
          <mxGeometry x="390" y="205" width="90" height="30" as="geometry" />
        </mxCell>
        <mxCell id="3gPIwnl7m9PvrxcbxDyX-7" style="edgeStyle=orthogonalEdgeStyle;rounded=0;orthogonalLoop=1;jettySize=auto;html=1;exitX=1;exitY=0.5;exitDx=0;exitDy=0;entryX=-0.002;entryY=0.633;entryDx=0;entryDy=0;entryPerimeter=0;" edge="1" parent="1" source="3gPIwnl7m9PvrxcbxDyX-1" target="3gPIwnl7m9PvrxcbxDyX-4">
          <mxGeometry relative="1" as="geometry" />
        </mxCell>
        <mxCell id="3gPIwnl7m9PvrxcbxDyX-9" value="Khối thông báo" style="rounded=0;whiteSpace=wrap;html=1;" vertex="1" parent="1">
          <mxGeometry x="622" y="272" width="120" height="60" as="geometry" />
        </mxCell>
      </root>
    </mxGraphModel>
  </diagram>
</mxfile>
